<svg id="Capa_1" data-name="Capa 1" xmlns="http://www.w3.org/2000/svg" viewBox="0 0 272.685 311.625">
  <defs>
    <style>
      .cls-1, .cls-3 {
        fill: #fff;
      }

      .cls-2 {
        fill: #1a1a1a;
      }

      .cls-3 {
        stroke: #1a1a1a;
        stroke-linecap: round;
        stroke-linejoin: round;
        stroke-width: 3.477px;
      }
    </style>
  </defs>
  <title>AdobeStock_117862513 [Converted]</title>
  <g>
    <g>
      <polygon class="cls-1" points="135.431 120.255 160.525 99.782 165.366 125.64 189.722 135.567 164.629 156.041 135.431 120.255"/>
      <path class="cls-2" d="M235.613,159.768l4.127,22.048.35,1.864,1.756.716,20.766,8.464-21.477,17.523-27-33.091,21.478-17.523m2.34-6.4-28.711,23.424,31.4,38.48,28.709-23.424-26.189-10.675-5.205-27.8Z" transform="translate(-76.258 -56.788)"/>
    </g>
    <path class="cls-2" d="M290.768,366.876S251.154,304.041,190.51,229.713,76.258,103.959,76.258,103.959,78.188,84.9,96.551,69.918s37.424-13.049,37.424-13.049,49.279,78.254,98.512,138.6,116,124.321,116,124.321,5.252,14.173-19.816,34.626S290.768,366.876,290.768,366.876Z" transform="translate(-76.258 -56.788)"/>
    <path class="cls-3" d="M111.283,80.238s-15.158,12.367-8.676,18.727,35.475-27.5,28.6-35.959c-3.795-4.677-26.469,5.023-36.09,14.88-10.492,10.742-14.522,22.768-11.9,25.977,4.33,5.309,18.871.809,18.871.809s79.578,93.569,106.287,125.512,98.879,132.3,98.879,132.3L311.531,359S243.512,266.9,214.1,230.05,107.09,99.243,107.09,99.243" transform="translate(-76.258 -56.788)"/>
    <g>
      <path class="cls-1" d="M209.273,251.456c-.288,0-.534-.008-.733-.018l-32.632-40a48.768,48.768,0,0,0,24.163-10.836,62.492,62.492,0,0,0,17.536-23.6L250.32,217.1c-1,3.053-5.327,14.225-17.579,24.222C221.533,250.468,212.6,251.456,209.273,251.456Z" transform="translate(-76.258 -56.788)"/>
      <path class="cls-2" d="M218.033,180.279l30.334,37.177c-1.359,3.755-5.725,13.544-16.725,22.52-10.656,8.693-19.045,9.718-22.264,9.74l-30.242-37.067a51.521,51.521,0,0,0,22.033-10.7,64.082,64.082,0,0,0,16.863-21.674m-.981-6.7a60.422,60.422,0,0,1-18.08,25.682c-12.845,10.48-25.393,10.705-26.444,10.705h-.071l35.2,43.142a11.535,11.535,0,0,0,1.617.089c3.619,0,12.973-1.064,24.566-10.523,14.953-12.2,18.412-25.952,18.412-25.952l-35.2-43.142Z" transform="translate(-76.258 -56.788)"/>
    </g>
  </g>
</svg>
