<svg id="Layer_1" data-name="Layer 1" xmlns="http://www.w3.org/2000/svg" viewBox="0 0 2000 1265.932">
  <title>AdobeStock_107999940 [Converted]</title>
  <g>
    <path d="M1756.884,1011.879c-27.054-21.363-61.463-47.914-93.98-72.725-44.922-33.356-106.644-77.76-187.271-132.676-9.826-6.7-20.248-13.5-30.915-20.34-5.69-3.631-11.321-7.2-16.981-10.757-101.029-63.035-224.885-126.634-256.15-142.517l-74.829,23.788c-19.745,29.969-104.736,147.033-232.591,156.923a199.8,199.8,0,0,1-20.431,1.1c-28.839,0-48.722-7.812-60.838-23.956-14.45-19.227-15.578-47.546-3.524-89.051a19.79,19.79,0,0,1,1.327-3.418c23.635-47.607,71.99-116.333,114.182-174.622-8.133-1.251-16.617-2.5-25.329-3.814-50.768-7.492-103.241-15.259-130.967-30.96C726.548,482,707.565,470.5,686.828,457.647L430.649,912.6l21.545,23.986c.885,1.069,25.909,32.2,61.143,76.234l.655-.885c17.272-23.285,44.419-36.652,74.51-36.652,25.238,0,50.612,9.431,71.441,26.611a121.315,121.315,0,0,1,39.672,60l24.14-32.9c17.289-23.377,44.464-36.744,74.57-36.744,25.269,0,50.629,9.431,71.426,26.611,35.6,29.205,50.736,75.073,41.551,114.624,1.571-.062,3.112-.274,4.7-.274,25.223,0,50.6,9.46,71.442,26.611,35.141,28.961,50.384,74.065,41.931,113.251,2.839-.274,5.677-.457,8.59-.457,25.208,0,50.584,9.43,71.442,26.549,46.555,38.3,58.242,105.1,26.017,148.866l-16.587,22.4c74.677,25.7,118.18,33.2,118.912,33.355.58.092,1.189.244,1.739.336,21.271,5.372,84.32,15.106,120.423-4.3,26.093-14.008,45.9-37.6,57.861-54.628l-194.946-94.085a20.583,20.583,0,0,1,17.944-37.049l206.711,99.823a18.761,18.761,0,0,1,4.715,0c14.144,2.289,55.649,5.4,76.478-8.209,25.375-16.633,30.7-55.6,31.738-74.555L1309.42,1185.8a20.6,20.6,0,0,1,20.645-35.645l257.324,149.017c17.976,1.19,59.8.672,78.461-14.4,33.233-27.038,28.992-69.7,26.519-83.769l-297.73-178.742a20.582,20.582,0,1,1,21.211-35.279l313.369,188.111c21.668,5.586,71.4,12.7,95.353-31.219,17.852-32.776,11.351-62.959-19.639-92.408Z" transform="translate(-200.003 -267.034)"/>
    <path d="M862.61,1143.379c19.531-26.551,10.985-68.116-19.013-92.744-13.474-11.139-29.54-17.242-45.273-17.242-17.2,0-31.907,7.11-41.444,19.929L624.756,1233.436c-19.485,26.4-10.955,67.963,18.981,92.713,13.443,11.077,29.526,17.212,45.242,17.212,17.2,0,31.923-7.08,41.475-19.989l.228-.3Z" transform="translate(-200.003 -267.034)"/>
    <path d="M961.273,1191.6c-13.473-11.077-29.556-17.212-45.272-17.212-13.427,0-25.253,4.487-34.363,12.574-2.517,2.257-108.963,147.675-108.963,147.675-.823,1.1-1.312,2.41-2.045,3.569a54.587,54.587,0,0,0-4.623,9.125c-9.72,25.757.046,58.96,25.589,80.018,13.519,11.139,29.632,17.243,45.364,17.243,17.183,0,31.846-7.111,41.337-19.959l102-140.26C999.8,1257.881,991.242,1216.315,961.273,1191.6Z" transform="translate(-200.003 -267.034)"/>
    <path d="M1083.254,1331c-13.49-11.108-29.588-17.243-45.29-17.243-17.166,0-31.859,7.111-41.382,20.019,0,0-70.557,96.254-72.127,100.007-10.926,25.939-1.115,60.363,25.054,81.97,13.489,11.108,29.617,17.212,45.335,17.212,17.165,0,31.86-7.11,41.352-19.988l66.085-89.355C1121.751,1397.163,1113.206,1355.629,1083.254,1331Z" transform="translate(-200.003 -267.034)"/>
    <path d="M654.5,1123.389c16.679-26.122,7.829-66.314-20.676-89.691-13.519-11.139-29.6-17.241-45.317-17.241-17.183,0-31.878,7.11-41.429,19.958l-42.16,56.976c-19.424,26.367-10.894,68.024,19.043,92.683,13.489,11.107,29.587,17.241,45.3,17.241,13.093,0,24.72-4.21,33.723-11.9C605.713,1189.063,653.886,1124.336,654.5,1123.389Z" transform="translate(-200.003 -267.034)"/>
    <path d="M1608.537,470.678c-27.008-2.258-58.471-9.643-94.94-18.2-56.976-13.382-127.914-30.045-202.347-30.045l-5.127.016c-167.908,1.6-304.6,23.636-325.028,52.383-4.79,6.714-10.345,14.4-16.266,22.554-4.38,6.042-8.9,12.236-13.763,18.89-3.724,5.126-7.722,10.62-11.644,16.021-43.152,59.3-96.329,133.546-121.032,182.587-9.751,34.424-5.845,46.8-2.594,51.117,4.669,6.226,17.761,7.508,27.924,7.508a166.657,166.657,0,0,0,16.769-.947c122.757-9.506,204.453-142.547,205.277-143.89a20.76,20.76,0,0,1,11.383-8.987l40.694-12.939,49.226-15.655a20.619,20.619,0,0,1,15.426,1.205c1.664.84,146.959,73.548,264.329,146.485,8.361,5.2,16.6,10.375,24.6,15.563,9.431,6.088,18.587,12.116,27.345,18.1,79.041,53.863,139.68,97.352,184.448,130.509,65.857,48.752,96.985,74.845,99.09,76.583l.031.031,42.267,34.851a2.214,2.214,0,0,1,.458-.244c13.885-6.042,40.558-19.837,70.389-46.936,12.711-11.506,21.835-21.058,30.654-30.274,10.8-11.351,21.027-22.033,36.011-34.424.336-.29.7-.58,1.022-.856l-252.563-448.67C1675.493,465.216,1639.421,473.227,1608.537,470.678Z" transform="translate(-200.003 -267.034)"/>
    <path d="M685.684,375.769c3.831-6.836,1.725-15.823-4.577-19.652L537.827,268.743a11.348,11.348,0,0,0-6-1.709,12.337,12.337,0,0,0-10.788,6.561L201.888,840.4c-3.8,6.776-1.663,15.763,4.669,19.639l143.234,87.357c5.631,3.418,13.443,1.1,16.832-4.883Z" transform="translate(-200.003 -267.034)"/>
    <path d="M2198.108,840.4,1878.984,273.657a12.383,12.383,0,0,0-10.8-6.593,11.42,11.42,0,0,0-5.965,1.694L1718.951,356.13c-6.349,3.876-8.5,12.863-4.67,19.639l319.107,566.743a12.321,12.321,0,0,0,16.876,4.883l143.158-87.341C2199.785,856.161,2201.922,847.175,2198.108,840.4Z" transform="translate(-200.003 -267.034)"/>
  </g>
</svg>
